<?xml version="1.0" encoding="UTF-8" standalone="no"?>
<!DOCTYPE svg PUBLIC "-//W3C//DTD SVG 1.1//EN"
 "http://www.w3.org/Graphics/SVG/1.1/DTD/svg11.dtd">
<!-- Generated by graphviz version 2.47.3 (20210619.1520)
 -->
<!-- Title: dependencies Pages: 1 -->
<svg width="1569pt" height="247pt"
 viewBox="0.00 0.00 1569.00 246.80" xmlns="http://www.w3.org/2000/svg" xmlns:xlink="http://www.w3.org/1999/xlink">
<g id="graph0" class="graph" transform="scale(1 1) rotate(0) translate(4 242.8)">
<title>dependencies</title>
<polygon fill="white" stroke="transparent" points="-4,4 -4,-242.8 1565,-242.8 1565,4 -4,4"/>
<text text-anchor="middle" x="780.5" y="-8.2" font-family="sans-serif" font-size="14.00">dependencies</text>
<g id="clust1" class="cluster">
<title>cluster_TournamentModule</title>
<polygon fill="none" stroke="black" stroke-dasharray="1,5" points="8,-32.8 8,-230.8 1553,-230.8 1553,-32.8 8,-32.8"/>
</g>
<g id="clust2" class="cluster">
<title>cluster_TournamentModule_declarations</title>
<polygon fill="none" stroke="black" points="674,-40.8 674,-92.8 1545,-92.8 1545,-40.8 674,-40.8"/>
</g>
<g id="clust8" class="cluster">
<title>cluster_TournamentModule_exports</title>
<polygon fill="none" stroke="black" points="418,-170.8 418,-222.8 1012,-222.8 1012,-170.8 418,-170.8"/>
</g>
<g id="clust10" class="cluster">
<title>cluster_TournamentModule_providers</title>
<polygon fill="none" stroke="black" points="214,-40.8 214,-92.8 666,-92.8 666,-40.8 214,-40.8"/>
</g>
<g id="clust7" class="cluster">
<title>cluster_TournamentModule_imports</title>
<polygon fill="none" stroke="black" points="16,-40.8 16,-92.8 206,-92.8 206,-40.8 16,-40.8"/>
</g>
<!-- TournamentCreateComponent -->
<g id="node1" class="node">
<title>TournamentCreateComponent</title>
<polygon fill="#ffffb3" stroke="black" points="1537.29,-84.8 1350.71,-84.8 1350.71,-48.8 1537.29,-48.8 1537.29,-84.8"/>
<text text-anchor="middle" x="1444" y="-62.6" font-family="Times,serif" font-size="14.00">TournamentCreateComponent</text>
</g>
<!-- TournamentModule -->
<g id="node5" class="node">
<title>TournamentModule</title>
<polygon fill="#8dd3c7" stroke="black" points="771.97,-149.8 768.97,-153.8 747.97,-153.8 744.97,-149.8 644.03,-149.8 644.03,-113.8 771.97,-113.8 771.97,-149.8"/>
<text text-anchor="middle" x="708" y="-127.6" font-family="Times,serif" font-size="14.00">TournamentModule</text>
</g>
<!-- TournamentCreateComponent&#45;&gt;TournamentModule -->
<g id="edge1" class="edge">
<title>TournamentCreateComponent&#45;&gt;TournamentModule</title>
<path fill="none" stroke="black" d="M1444,-84.93C1444,-105.37 1444,-135.8 1444,-135.8 1444,-135.8 782.03,-135.8 782.03,-135.8"/>
<polygon fill="black" stroke="black" points="782.03,-132.3 772.03,-135.8 782.03,-139.3 782.03,-132.3"/>
</g>
<!-- TournamentEditComponent -->
<g id="node2" class="node">
<title>TournamentEditComponent</title>
<polygon fill="#ffffb3" stroke="black" points="1332.59,-84.8 1159.41,-84.8 1159.41,-48.8 1332.59,-48.8 1332.59,-84.8"/>
<text text-anchor="middle" x="1246" y="-62.6" font-family="Times,serif" font-size="14.00">TournamentEditComponent</text>
</g>
<!-- TournamentEditComponent&#45;&gt;TournamentModule -->
<g id="edge2" class="edge">
<title>TournamentEditComponent&#45;&gt;TournamentModule</title>
<path fill="none" stroke="black" d="M1246,-85.07C1246,-103.36 1246,-128.8 1246,-128.8 1246,-128.8 782.09,-128.8 782.09,-128.8"/>
<polygon fill="black" stroke="black" points="782.09,-125.3 772.09,-128.8 782.09,-132.3 782.09,-125.3"/>
</g>
<!-- TournamentListComponent -->
<g id="node3" class="node">
<title>TournamentListComponent</title>
<polygon fill="#ffffb3" stroke="black" points="1141.54,-84.8 970.46,-84.8 970.46,-48.8 1141.54,-48.8 1141.54,-84.8"/>
<text text-anchor="middle" x="1056" y="-62.6" font-family="Times,serif" font-size="14.00">TournamentListComponent</text>
</g>
<!-- TournamentListComponent&#45;&gt;TournamentModule -->
<g id="edge3" class="edge">
<title>TournamentListComponent&#45;&gt;TournamentModule</title>
<path fill="none" stroke="black" d="M987.06,-84.81C987.06,-100.85 987.06,-121.8 987.06,-121.8 987.06,-121.8 782.02,-121.8 782.02,-121.8"/>
<polygon fill="black" stroke="black" points="782.02,-118.3 772.02,-121.8 782.02,-125.3 782.02,-118.3"/>
</g>
<!-- TournamentManagementMatchesComponent -->
<g id="node4" class="node">
<title>TournamentManagementMatchesComponent</title>
<polygon fill="#ffffb3" stroke="black" points="952.26,-84.8 681.74,-84.8 681.74,-48.8 952.26,-48.8 952.26,-84.8"/>
<text text-anchor="middle" x="817" y="-62.6" font-family="Times,serif" font-size="14.00">TournamentManagementMatchesComponent</text>
</g>
<!-- TournamentManagementMatchesComponent&#45;&gt;TournamentModule -->
<g id="edge4" class="edge">
<title>TournamentManagementMatchesComponent&#45;&gt;TournamentModule</title>
<path fill="none" stroke="black" d="M726.93,-84.91C726.93,-84.91 726.93,-103.79 726.93,-103.79"/>
<polygon fill="black" stroke="black" points="723.43,-103.79 726.93,-113.79 730.43,-103.79 723.43,-103.79"/>
</g>
<!-- TournamentCreateComponent  -->
<g id="node7" class="node">
<title>TournamentCreateComponent </title>
<polygon fill="#fb8072" stroke="black" points="1003.79,-214.8 814.21,-214.8 814.21,-178.8 1003.79,-178.8 1003.79,-214.8"/>
<text text-anchor="middle" x="909" y="-192.6" font-family="Times,serif" font-size="14.00">TournamentCreateComponent </text>
</g>
<!-- TournamentModule&#45;&gt;TournamentCreateComponent  -->
<g id="edge6" class="edge">
<title>TournamentModule&#45;&gt;TournamentCreateComponent </title>
<path fill="none" stroke="black" stroke-dasharray="5,2" d="M772.21,-142.8C822.19,-142.8 883.12,-142.8 883.12,-142.8 883.12,-142.8 883.12,-168.52 883.12,-168.52"/>
<polygon fill="black" stroke="black" points="879.62,-168.52 883.12,-178.52 886.62,-168.52 879.62,-168.52"/>
</g>
<!-- TournamentEditComponent  -->
<g id="node8" class="node">
<title>TournamentEditComponent </title>
<polygon fill="#fb8072" stroke="black" points="796.09,-214.8 619.91,-214.8 619.91,-178.8 796.09,-178.8 796.09,-214.8"/>
<text text-anchor="middle" x="708" y="-192.6" font-family="Times,serif" font-size="14.00">TournamentEditComponent </text>
</g>
<!-- TournamentModule&#45;&gt;TournamentEditComponent  -->
<g id="edge7" class="edge">
<title>TournamentModule&#45;&gt;TournamentEditComponent </title>
<path fill="none" stroke="black" stroke-dasharray="5,2" d="M708,-149.91C708,-149.91 708,-168.79 708,-168.79"/>
<polygon fill="black" stroke="black" points="704.5,-168.79 708,-178.79 711.5,-168.79 704.5,-168.79"/>
</g>
<!-- TournamentListComponent  -->
<g id="node9" class="node">
<title>TournamentListComponent </title>
<polygon fill="#fb8072" stroke="black" points="601.53,-214.8 426.47,-214.8 426.47,-178.8 601.53,-178.8 601.53,-214.8"/>
<text text-anchor="middle" x="514" y="-192.6" font-family="Times,serif" font-size="14.00">TournamentListComponent </text>
</g>
<!-- TournamentModule&#45;&gt;TournamentListComponent  -->
<g id="edge8" class="edge">
<title>TournamentModule&#45;&gt;TournamentListComponent </title>
<path fill="none" stroke="black" stroke-dasharray="5,2" d="M643.73,-142.8C607.97,-142.8 570.61,-142.8 570.61,-142.8 570.61,-142.8 570.61,-168.52 570.61,-168.52"/>
<polygon fill="black" stroke="black" points="567.11,-168.52 570.61,-178.52 574.11,-168.52 567.11,-168.52"/>
</g>
<!-- TournamentRoutingModule -->
<g id="node6" class="node">
<title>TournamentRoutingModule</title>
<polygon fill="#8dd3c7" stroke="black" points="197.59,-84.8 194.59,-88.8 173.59,-88.8 170.59,-84.8 24.41,-84.8 24.41,-48.8 197.59,-48.8 197.59,-84.8"/>
<text text-anchor="middle" x="111" y="-62.6" font-family="Times,serif" font-size="14.00">TournamentRoutingModule</text>
</g>
<!-- TournamentRoutingModule&#45;&gt;TournamentModule -->
<g id="edge5" class="edge">
<title>TournamentRoutingModule&#45;&gt;TournamentModule</title>
<path fill="none" stroke="black" d="M111,-84.93C111,-105.37 111,-135.8 111,-135.8 111,-135.8 633.83,-135.8 633.83,-135.8"/>
<polygon fill="black" stroke="black" points="633.83,-139.3 643.83,-135.8 633.83,-132.3 633.83,-139.3"/>
</g>
<!-- AuthService -->
<g id="node10" class="node">
<title>AuthService</title>
<ellipse fill="#fdb462" stroke="black" cx="599" cy="-66.8" rx="59.11" ry="18"/>
<text text-anchor="middle" x="599" y="-62.6" font-family="Times,serif" font-size="14.00">AuthService</text>
</g>
<!-- AuthService&#45;&gt;TournamentModule -->
<g id="edge9" class="edge">
<title>AuthService&#45;&gt;TournamentModule</title>
<path fill="none" stroke="black" d="M651.16,-75.57C651.16,-75.57 651.16,-103.6 651.16,-103.6"/>
<polygon fill="black" stroke="black" points="647.66,-103.6 651.16,-113.6 654.66,-103.6 647.66,-103.6"/>
</g>
<!-- EloService -->
<g id="node11" class="node">
<title>EloService</title>
<ellipse fill="#fdb462" stroke="black" cx="468" cy="-66.8" rx="53.31" ry="18"/>
<text text-anchor="middle" x="468" y="-62.6" font-family="Times,serif" font-size="14.00">EloService</text>
</g>
<!-- EloService&#45;&gt;TournamentModule -->
<g id="edge10" class="edge">
<title>EloService&#45;&gt;TournamentModule</title>
<path fill="none" stroke="black" d="M473.94,-84.81C473.94,-100.85 473.94,-121.8 473.94,-121.8 473.94,-121.8 633.73,-121.8 633.73,-121.8"/>
<polygon fill="black" stroke="black" points="633.73,-125.3 643.73,-121.8 633.73,-118.3 633.73,-125.3"/>
</g>
<!-- TournamentService -->
<g id="node12" class="node">
<title>TournamentService</title>
<ellipse fill="#fdb462" stroke="black" cx="309" cy="-66.8" rx="87.38" ry="18"/>
<text text-anchor="middle" x="309" y="-62.6" font-family="Times,serif" font-size="14.00">TournamentService</text>
</g>
<!-- TournamentService&#45;&gt;TournamentModule -->
<g id="edge11" class="edge">
<title>TournamentService&#45;&gt;TournamentModule</title>
<path fill="none" stroke="black" d="M309,-85.07C309,-103.36 309,-128.8 309,-128.8 309,-128.8 633.89,-128.8 633.89,-128.8"/>
<polygon fill="black" stroke="black" points="633.89,-132.3 643.89,-128.8 633.89,-125.3 633.89,-132.3"/>
</g>
</g>
</svg>
