<?xml version="1.0" encoding="UTF-8" standalone="no"?>
<!DOCTYPE svg PUBLIC "-//W3C//DTD SVG 1.1//EN"
 "http://www.w3.org/Graphics/SVG/1.1/DTD/svg11.dtd">
<!-- Generated by graphviz version 2.47.3 (20210619.1520)
 -->
<!-- Title: dependencies Pages: 1 -->
<svg width="962pt" height="174pt"
 viewBox="0.00 0.00 962.00 173.80" xmlns="http://www.w3.org/2000/svg" xmlns:xlink="http://www.w3.org/1999/xlink">
<g id="graph0" class="graph" transform="scale(1 1) rotate(0) translate(4 169.8)">
<title>dependencies</title>
<polygon fill="white" stroke="transparent" points="-4,4 -4,-169.8 958,-169.8 958,4 -4,4"/>
<text text-anchor="middle" x="477" y="-8.2" font-family="sans-serif" font-size="14.00">dependencies</text>
<g id="clust1" class="cluster">
<title>cluster_UserModule</title>
<polygon fill="none" stroke="black" stroke-dasharray="1,5" points="8,-32.8 8,-157.8 946,-157.8 946,-32.8 8,-32.8"/>
</g>
<g id="clust2" class="cluster">
<title>cluster_UserModule_declarations</title>
<polygon fill="none" stroke="black" points="770,-40.8 770,-92.8 938,-92.8 938,-40.8 770,-40.8"/>
</g>
<g id="clust4" class="cluster">
<title>cluster_UserModule_imports</title>
<polygon fill="none" stroke="black" points="614,-40.8 614,-92.8 762,-92.8 762,-40.8 614,-40.8"/>
</g>
<g id="clust7" class="cluster">
<title>cluster_UserModule_providers</title>
<polygon fill="none" stroke="black" points="16,-40.8 16,-92.8 606,-92.8 606,-40.8 16,-40.8"/>
</g>
<!-- UserGeneralComponent -->
<g id="node1" class="node">
<title>UserGeneralComponent</title>
<polygon fill="#ffffb3" stroke="black" points="930.06,-84.8 777.94,-84.8 777.94,-48.8 930.06,-48.8 930.06,-84.8"/>
<text text-anchor="middle" x="854" y="-62.6" font-family="Times,serif" font-size="14.00">UserGeneralComponent</text>
</g>
<!-- UserModule -->
<g id="node2" class="node">
<title>UserModule</title>
<polygon fill="#8dd3c7" stroke="black" points="520.98,-149.8 517.98,-153.8 496.98,-153.8 493.98,-149.8 435.02,-149.8 435.02,-113.8 520.98,-113.8 520.98,-149.8"/>
<text text-anchor="middle" x="478" y="-127.6" font-family="Times,serif" font-size="14.00">UserModule</text>
</g>
<!-- UserGeneralComponent&#45;&gt;UserModule -->
<g id="edge1" class="edge">
<title>UserGeneralComponent&#45;&gt;UserModule</title>
<path fill="none" stroke="black" d="M854,-85.08C854,-106.12 854,-137.8 854,-137.8 854,-137.8 531.13,-137.8 531.13,-137.8"/>
<polygon fill="black" stroke="black" points="531.13,-134.3 521.13,-137.8 531.13,-141.3 531.13,-134.3"/>
</g>
<!-- UserRoutingModule -->
<g id="node3" class="node">
<title>UserRoutingModule</title>
<polygon fill="#8dd3c7" stroke="black" points="753.59,-84.8 750.59,-88.8 729.59,-88.8 726.59,-84.8 622.41,-84.8 622.41,-48.8 753.59,-48.8 753.59,-84.8"/>
<text text-anchor="middle" x="688" y="-62.6" font-family="Times,serif" font-size="14.00">UserRoutingModule</text>
</g>
<!-- UserRoutingModule&#45;&gt;UserModule -->
<g id="edge2" class="edge">
<title>UserRoutingModule&#45;&gt;UserModule</title>
<path fill="none" stroke="black" d="M688,-84.82C688,-102.17 688,-125.8 688,-125.8 688,-125.8 531,-125.8 531,-125.8"/>
<polygon fill="black" stroke="black" points="531,-122.3 521,-125.8 531,-129.3 531,-122.3"/>
</g>
<!-- EloService -->
<g id="node4" class="node">
<title>EloService</title>
<ellipse fill="#fdb462" stroke="black" cx="545" cy="-66.8" rx="53.31" ry="18"/>
<text text-anchor="middle" x="545" y="-62.6" font-family="Times,serif" font-size="14.00">EloService</text>
</g>
<!-- EloService&#45;&gt;UserModule -->
<g id="edge3" class="edge">
<title>EloService&#45;&gt;UserModule</title>
<path fill="none" stroke="black" d="M506.29,-79.33C506.29,-79.33 506.29,-103.65 506.29,-103.65"/>
<polygon fill="black" stroke="black" points="502.79,-103.65 506.29,-113.65 509.79,-103.65 502.79,-103.65"/>
</g>
<!-- TeamService -->
<g id="node5" class="node">
<title>TeamService</title>
<ellipse fill="#fdb462" stroke="black" cx="412" cy="-66.8" rx="61.95" ry="18"/>
<text text-anchor="middle" x="412" y="-62.6" font-family="Times,serif" font-size="14.00">TeamService</text>
</g>
<!-- TeamService&#45;&gt;UserModule -->
<g id="edge4" class="edge">
<title>TeamService&#45;&gt;UserModule</title>
<path fill="none" stroke="black" d="M454.49,-79.95C454.49,-79.95 454.49,-103.49 454.49,-103.49"/>
<polygon fill="black" stroke="black" points="450.99,-103.49 454.49,-113.49 457.99,-103.49 450.99,-103.49"/>
</g>
<!-- TournamentService -->
<g id="node6" class="node">
<title>TournamentService</title>
<ellipse fill="#fdb462" stroke="black" cx="245" cy="-66.8" rx="87.38" ry="18"/>
<text text-anchor="middle" x="245" y="-62.6" font-family="Times,serif" font-size="14.00">TournamentService</text>
</g>
<!-- TournamentService&#45;&gt;UserModule -->
<g id="edge5" class="edge">
<title>TournamentService&#45;&gt;UserModule</title>
<path fill="none" stroke="black" d="M245,-84.82C245,-102.17 245,-125.8 245,-125.8 245,-125.8 424.99,-125.8 424.99,-125.8"/>
<polygon fill="black" stroke="black" points="424.99,-129.3 434.99,-125.8 424.99,-122.3 424.99,-129.3"/>
</g>
<!-- UserService -->
<g id="node7" class="node">
<title>UserService</title>
<ellipse fill="#fdb462" stroke="black" cx="82" cy="-66.8" rx="58.44" ry="18"/>
<text text-anchor="middle" x="82" y="-62.6" font-family="Times,serif" font-size="14.00">UserService</text>
</g>
<!-- UserService&#45;&gt;UserModule -->
<g id="edge6" class="edge">
<title>UserService&#45;&gt;UserModule</title>
<path fill="none" stroke="black" d="M82,-85.08C82,-106.12 82,-137.8 82,-137.8 82,-137.8 424.87,-137.8 424.87,-137.8"/>
<polygon fill="black" stroke="black" points="424.87,-141.3 434.87,-137.8 424.87,-134.3 424.87,-141.3"/>
</g>
</g>
</svg>
