<?xml version="1.0" encoding="UTF-8" standalone="no"?>
<!DOCTYPE svg PUBLIC "-//W3C//DTD SVG 1.1//EN"
 "http://www.w3.org/Graphics/SVG/1.1/DTD/svg11.dtd">
<!-- Generated by graphviz version 2.47.3 (20210619.1520)
 -->
<!-- Title: dependencies Pages: 1 -->
<svg width="538pt" height="247pt"
 viewBox="0.00 0.00 538.00 246.80" xmlns="http://www.w3.org/2000/svg" xmlns:xlink="http://www.w3.org/1999/xlink">
<g id="graph0" class="graph" transform="scale(1 1) rotate(0) translate(4 242.8)">
<title>dependencies</title>
<polygon fill="white" stroke="transparent" points="-4,4 -4,-242.8 534,-242.8 534,4 -4,4"/>
<text text-anchor="middle" x="265" y="-8.2" font-family="sans-serif" font-size="14.00">dependencies</text>
<g id="clust1" class="cluster">
<title>cluster_HttpCodesModule</title>
<polygon fill="none" stroke="black" stroke-dasharray="1,5" points="8,-32.8 8,-230.8 522,-230.8 522,-32.8 8,-32.8"/>
</g>
<g id="clust5" class="cluster">
<title>cluster_HttpCodesModule_imports</title>
<polygon fill="none" stroke="black" points="334,-40.8 334,-92.8 514,-92.8 514,-40.8 334,-40.8"/>
</g>
<g id="clust6" class="cluster">
<title>cluster_HttpCodesModule_exports</title>
<polygon fill="none" stroke="black" points="93,-170.8 93,-222.8 411,-222.8 411,-170.8 93,-170.8"/>
</g>
<g id="clust2" class="cluster">
<title>cluster_HttpCodesModule_declarations</title>
<polygon fill="none" stroke="black" points="16,-40.8 16,-92.8 326,-92.8 326,-40.8 16,-40.8"/>
</g>
<!-- ForbiddenComponent -->
<g id="node1" class="node">
<title>ForbiddenComponent</title>
<polygon fill="#ffffb3" stroke="black" points="318.38,-84.8 179.62,-84.8 179.62,-48.8 318.38,-48.8 318.38,-84.8"/>
<text text-anchor="middle" x="249" y="-62.6" font-family="Times,serif" font-size="14.00">ForbiddenComponent</text>
</g>
<!-- HttpCodesModule -->
<g id="node3" class="node">
<title>HttpCodesModule</title>
<polygon fill="#8dd3c7" stroke="black" points="308.93,-149.8 305.93,-153.8 284.93,-153.8 281.93,-149.8 189.07,-149.8 189.07,-113.8 308.93,-113.8 308.93,-149.8"/>
<text text-anchor="middle" x="249" y="-127.6" font-family="Times,serif" font-size="14.00">HttpCodesModule</text>
</g>
<!-- ForbiddenComponent&#45;&gt;HttpCodesModule -->
<g id="edge1" class="edge">
<title>ForbiddenComponent&#45;&gt;HttpCodesModule</title>
<path fill="none" stroke="black" d="M249,-84.91C249,-84.91 249,-103.79 249,-103.79"/>
<polygon fill="black" stroke="black" points="245.5,-103.79 249,-113.79 252.5,-103.79 245.5,-103.79"/>
</g>
<!-- NotFoundComponent -->
<g id="node2" class="node">
<title>NotFoundComponent</title>
<polygon fill="#ffffb3" stroke="black" points="162.11,-84.8 23.89,-84.8 23.89,-48.8 162.11,-48.8 162.11,-84.8"/>
<text text-anchor="middle" x="93" y="-62.6" font-family="Times,serif" font-size="14.00">NotFoundComponent</text>
</g>
<!-- NotFoundComponent&#45;&gt;HttpCodesModule -->
<g id="edge2" class="edge">
<title>NotFoundComponent&#45;&gt;HttpCodesModule</title>
<path fill="none" stroke="black" d="M131.62,-84.91C131.62,-104.14 131.62,-131.8 131.62,-131.8 131.62,-131.8 179.28,-131.8 179.28,-131.8"/>
<polygon fill="black" stroke="black" points="179.28,-135.3 189.28,-131.8 179.28,-128.3 179.28,-135.3"/>
</g>
<!-- ForbiddenComponent  -->
<g id="node5" class="node">
<title>ForbiddenComponent </title>
<polygon fill="#fb8072" stroke="black" points="403.38,-214.8 260.62,-214.8 260.62,-178.8 403.38,-178.8 403.38,-214.8"/>
<text text-anchor="middle" x="332" y="-192.6" font-family="Times,serif" font-size="14.00">ForbiddenComponent </text>
</g>
<!-- HttpCodesModule&#45;&gt;ForbiddenComponent  -->
<g id="edge4" class="edge">
<title>HttpCodesModule&#45;&gt;ForbiddenComponent </title>
<path fill="none" stroke="black" stroke-dasharray="5,2" d="M284.76,-149.91C284.76,-149.91 284.76,-168.79 284.76,-168.79"/>
<polygon fill="black" stroke="black" points="281.26,-168.79 284.76,-178.79 288.26,-168.79 281.26,-168.79"/>
</g>
<!-- NotFoundComponent  -->
<g id="node6" class="node">
<title>NotFoundComponent </title>
<polygon fill="#fb8072" stroke="black" points="242.61,-214.8 101.39,-214.8 101.39,-178.8 242.61,-178.8 242.61,-214.8"/>
<text text-anchor="middle" x="172" y="-192.6" font-family="Times,serif" font-size="14.00">NotFoundComponent </text>
</g>
<!-- HttpCodesModule&#45;&gt;NotFoundComponent  -->
<g id="edge5" class="edge">
<title>HttpCodesModule&#45;&gt;NotFoundComponent </title>
<path fill="none" stroke="black" stroke-dasharray="5,2" d="M216.04,-149.91C216.04,-149.91 216.04,-168.79 216.04,-168.79"/>
<polygon fill="black" stroke="black" points="212.54,-168.79 216.04,-178.79 219.54,-168.79 212.54,-168.79"/>
</g>
<!-- HttpCodesRoutingModule -->
<g id="node4" class="node">
<title>HttpCodesRoutingModule</title>
<polygon fill="#8dd3c7" stroke="black" points="506.05,-84.8 503.05,-88.8 482.05,-88.8 479.05,-84.8 341.95,-84.8 341.95,-48.8 506.05,-48.8 506.05,-84.8"/>
<text text-anchor="middle" x="424" y="-62.6" font-family="Times,serif" font-size="14.00">HttpCodesRoutingModule</text>
</g>
<!-- HttpCodesRoutingModule&#45;&gt;HttpCodesModule -->
<g id="edge3" class="edge">
<title>HttpCodesRoutingModule&#45;&gt;HttpCodesModule</title>
<path fill="none" stroke="black" d="M372.46,-84.91C372.46,-104.14 372.46,-131.8 372.46,-131.8 372.46,-131.8 318.92,-131.8 318.92,-131.8"/>
<polygon fill="black" stroke="black" points="318.92,-128.3 308.92,-131.8 318.92,-135.3 318.92,-128.3"/>
</g>
</g>
</svg>
