<?xml version="1.0" encoding="UTF-8" standalone="no"?>
<!DOCTYPE svg PUBLIC "-//W3C//DTD SVG 1.1//EN"
 "http://www.w3.org/Graphics/SVG/1.1/DTD/svg11.dtd">
<!-- Generated by graphviz version 2.47.3 (20210619.1520)
 -->
<!-- Title: dependencies Pages: 1 -->
<svg width="609pt" height="247pt"
 viewBox="0.00 0.00 609.00 246.80" xmlns="http://www.w3.org/2000/svg" xmlns:xlink="http://www.w3.org/1999/xlink">
<g id="graph0" class="graph" transform="scale(1 1) rotate(0) translate(4 242.8)">
<title>dependencies</title>
<polygon fill="white" stroke="transparent" points="-4,4 -4,-242.8 605,-242.8 605,4 -4,4"/>
<text text-anchor="middle" x="300.5" y="-8.2" font-family="sans-serif" font-size="14.00">dependencies</text>
<g id="clust1" class="cluster">
<title>cluster_LayoutModule</title>
<polygon fill="none" stroke="black" stroke-dasharray="1,5" points="8,-32.8 8,-230.8 593,-230.8 593,-32.8 8,-32.8"/>
</g>
<g id="clust8" class="cluster">
<title>cluster_LayoutModule_exports</title>
<polygon fill="none" stroke="black" points="16,-170.8 16,-222.8 585,-222.8 585,-170.8 16,-170.8"/>
</g>
<g id="clust2" class="cluster">
<title>cluster_LayoutModule_declarations</title>
<polygon fill="none" stroke="black" points="24,-40.8 24,-92.8 579,-92.8 579,-40.8 24,-40.8"/>
</g>
<!-- FooterComponent -->
<g id="node1" class="node">
<title>FooterComponent</title>
<polygon fill="#ffffb3" stroke="black" points="570.88,-84.8 453.12,-84.8 453.12,-48.8 570.88,-48.8 570.88,-84.8"/>
<text text-anchor="middle" x="512" y="-62.6" font-family="Times,serif" font-size="14.00">FooterComponent</text>
</g>
<!-- LayoutModule -->
<g id="node5" class="node">
<title>LayoutModule</title>
<polygon fill="#8dd3c7" stroke="black" points="285.71,-149.8 282.71,-153.8 261.71,-153.8 258.71,-149.8 186.29,-149.8 186.29,-113.8 285.71,-113.8 285.71,-149.8"/>
<text text-anchor="middle" x="236" y="-127.6" font-family="Times,serif" font-size="14.00">LayoutModule</text>
</g>
<!-- FooterComponent&#45;&gt;LayoutModule -->
<g id="edge1" class="edge">
<title>FooterComponent&#45;&gt;LayoutModule</title>
<path fill="none" stroke="black" d="M532.4,-85.07C532.4,-103.36 532.4,-128.8 532.4,-128.8 532.4,-128.8 295.61,-128.8 295.61,-128.8"/>
<polygon fill="black" stroke="black" points="295.61,-125.3 285.61,-128.8 295.61,-132.3 295.61,-125.3"/>
</g>
<!-- LayoutComponent -->
<g id="node2" class="node">
<title>LayoutComponent</title>
<polygon fill="#ffffb3" stroke="black" points="435.49,-84.8 314.51,-84.8 314.51,-48.8 435.49,-48.8 435.49,-84.8"/>
<text text-anchor="middle" x="375" y="-62.6" font-family="Times,serif" font-size="14.00">LayoutComponent</text>
</g>
<!-- LayoutComponent&#45;&gt;LayoutModule -->
<g id="edge2" class="edge">
<title>LayoutComponent&#45;&gt;LayoutModule</title>
<path fill="none" stroke="black" d="M395.17,-84.81C395.17,-100.85 395.17,-121.8 395.17,-121.8 395.17,-121.8 295.92,-121.8 295.92,-121.8"/>
<polygon fill="black" stroke="black" points="295.92,-118.3 285.92,-121.8 295.92,-125.3 295.92,-118.3"/>
</g>
<!-- SidebarComponent -->
<g id="node3" class="node">
<title>SidebarComponent</title>
<polygon fill="#ffffb3" stroke="black" points="296.1,-84.8 171.9,-84.8 171.9,-48.8 296.1,-48.8 296.1,-84.8"/>
<text text-anchor="middle" x="234" y="-62.6" font-family="Times,serif" font-size="14.00">SidebarComponent</text>
</g>
<!-- SidebarComponent&#45;&gt;LayoutModule -->
<g id="edge3" class="edge">
<title>SidebarComponent&#45;&gt;LayoutModule</title>
<path fill="none" stroke="black" d="M236,-84.91C236,-84.91 236,-103.79 236,-103.79"/>
<polygon fill="black" stroke="black" points="232.5,-103.79 236,-113.79 239.5,-103.79 232.5,-103.79"/>
</g>
<!-- TopbarComponent -->
<g id="node4" class="node">
<title>TopbarComponent</title>
<polygon fill="#ffffb3" stroke="black" points="153.76,-84.8 32.24,-84.8 32.24,-48.8 153.76,-48.8 153.76,-84.8"/>
<text text-anchor="middle" x="93" y="-62.6" font-family="Times,serif" font-size="14.00">TopbarComponent</text>
</g>
<!-- TopbarComponent&#45;&gt;LayoutModule -->
<g id="edge4" class="edge">
<title>TopbarComponent&#45;&gt;LayoutModule</title>
<path fill="none" stroke="black" d="M110.46,-84.82C110.46,-102.17 110.46,-125.8 110.46,-125.8 110.46,-125.8 176.38,-125.8 176.38,-125.8"/>
<polygon fill="black" stroke="black" points="176.38,-129.3 186.38,-125.8 176.38,-122.3 176.38,-129.3"/>
</g>
<!-- FooterComponent  -->
<g id="node6" class="node">
<title>FooterComponent </title>
<polygon fill="#fb8072" stroke="black" points="576.88,-214.8 455.12,-214.8 455.12,-178.8 576.88,-178.8 576.88,-214.8"/>
<text text-anchor="middle" x="516" y="-192.6" font-family="Times,serif" font-size="14.00">FooterComponent </text>
</g>
<!-- LayoutModule&#45;&gt;FooterComponent  -->
<g id="edge5" class="edge">
<title>LayoutModule&#45;&gt;FooterComponent </title>
<path fill="none" stroke="black" stroke-dasharray="5,2" d="M285.72,-135.8C360.65,-135.8 493.85,-135.8 493.85,-135.8 493.85,-135.8 493.85,-168.5 493.85,-168.5"/>
<polygon fill="black" stroke="black" points="490.35,-168.5 493.85,-178.5 497.35,-168.5 490.35,-168.5"/>
</g>
<!-- LayoutComponent  -->
<g id="node7" class="node">
<title>LayoutComponent </title>
<polygon fill="#fb8072" stroke="black" points="437.49,-214.8 312.51,-214.8 312.51,-178.8 437.49,-178.8 437.49,-214.8"/>
<text text-anchor="middle" x="375" y="-192.6" font-family="Times,serif" font-size="14.00">LayoutComponent </text>
</g>
<!-- LayoutModule&#45;&gt;LayoutComponent  -->
<g id="edge6" class="edge">
<title>LayoutModule&#45;&gt;LayoutComponent </title>
<path fill="none" stroke="black" stroke-dasharray="5,2" d="M285.71,-142.8C318.27,-142.8 354.83,-142.8 354.83,-142.8 354.83,-142.8 354.83,-168.52 354.83,-168.52"/>
<polygon fill="black" stroke="black" points="351.34,-168.52 354.83,-178.52 358.34,-168.52 351.34,-168.52"/>
</g>
<!-- SidebarComponent  -->
<g id="node8" class="node">
<title>SidebarComponent </title>
<polygon fill="#fb8072" stroke="black" points="294.6,-214.8 167.4,-214.8 167.4,-178.8 294.6,-178.8 294.6,-214.8"/>
<text text-anchor="middle" x="231" y="-192.6" font-family="Times,serif" font-size="14.00">SidebarComponent </text>
</g>
<!-- LayoutModule&#45;&gt;SidebarComponent  -->
<g id="edge7" class="edge">
<title>LayoutModule&#45;&gt;SidebarComponent </title>
<path fill="none" stroke="black" stroke-dasharray="5,2" d="M236,-149.91C236,-149.91 236,-168.79 236,-168.79"/>
<polygon fill="black" stroke="black" points="232.5,-168.79 236,-178.79 239.5,-168.79 232.5,-168.79"/>
</g>
<!-- TopbarComponent  -->
<g id="node9" class="node">
<title>TopbarComponent </title>
<polygon fill="#fb8072" stroke="black" points="149.76,-214.8 24.24,-214.8 24.24,-178.8 149.76,-178.8 149.76,-214.8"/>
<text text-anchor="middle" x="87" y="-192.6" font-family="Times,serif" font-size="14.00">TopbarComponent </text>
</g>
<!-- LayoutModule&#45;&gt;TopbarComponent  -->
<g id="edge8" class="edge">
<title>LayoutModule&#45;&gt;TopbarComponent </title>
<path fill="none" stroke="black" stroke-dasharray="5,2" d="M186.13,-137.8C137.66,-137.8 71.29,-137.8 71.29,-137.8 71.29,-137.8 71.29,-168.78 71.29,-168.78"/>
<polygon fill="black" stroke="black" points="67.79,-168.78 71.29,-178.78 74.79,-168.78 67.79,-168.78"/>
</g>
</g>
</svg>
